<?xml version="1.0" encoding="UTF-8" standalone="no"?>
<svg
   xmlns:dc="http://purl.org/dc/elements/1.1/"
   xmlns:cc="http://creativecommons.org/ns#"
   xmlns:rdf="http://www.w3.org/1999/02/22-rdf-syntax-ns#"
   xmlns:svg="http://www.w3.org/2000/svg"
   xmlns="http://www.w3.org/2000/svg"
   id="svg3735"
   version="1.1"
   viewBox="0 0 20.157539 12.62768"
   height="12.62768mm"
   width="20.157539mm">
  <defs
     id="defs3729" />
  <metadata
     id="metadata3732">
    <rdf:RDF>
      <cc:Work
         rdf:about="">
        <dc:format>image/svg+xml</dc:format>
        <dc:type
           rdf:resource="http://purl.org/dc/dcmitype/StillImage" />
        <dc:title></dc:title>
      </cc:Work>
    </rdf:RDF>
  </metadata>
  <g
     transform="translate(-115.03135,-120.40789)"
     id="layer1">
    <path
       id="path42"
       style="fill:#000;fill-opacity:1;fill-rule:nonzero;stroke:none;stroke-width:0.03527778"
       d="m 125.0931,131.06636 c 1.09512,0 1.98328,-0.88829 1.98328,-1.98331 0,-1.09503 -0.88816,-1.98332 -1.98328,-1.98332 -0.32135,0 -0.62481,0.0769 -0.8931,0.21237 0.33126,0.073 0.57934,0.36795 0.57934,0.72108 0,0.40781 -0.33059,0.73836 -0.73837,0.73836 -0.35235,0 -0.64727,-0.24694 -0.72072,-0.57749 -0.13434,0.2674 -0.21029,0.56938 -0.21029,0.889 0,1.09502 0.88815,1.98331 1.98314,1.98331" />
    <path
       id="path44"
       style="fill:#000;fill-opacity:1;fill-rule:nonzero;stroke:none;stroke-width:0.03527778"
       d="m 131.41611,126.24213 c -0.11109,1.56915 -0.79361,2.98097 -1.84065,4.02837 -1.14696,1.14688 -2.73209,1.85667 -4.48236,1.85667 -1.75024,0 -3.33527,-0.70979 -4.48233,-1.85703 -1.0469,-1.04704 -1.7296,-2.45886 -1.84065,-4.02801 z m -13.92248,0 h 0.36601 c 0.1126,1.81998 0.89753,3.45863 2.10897,4.67007 1.31173,1.31198 3.12371,2.12337 5.12449,2.12337 2.00078,0 3.81289,-0.81139 5.12452,-2.12302 1.21158,-1.21179 1.99637,-2.85044 2.10894,-4.67042 h 0.36643 c 0.40636,0 0.73889,-0.33267 0.73889,-0.73907 h -16.67743 c 0,0.4064 0.33253,0.73907 0.73918,0.73907" />
    <path
       id="path46"
       style="fill:#000;fill-opacity:1;fill-rule:nonzero;stroke:none;stroke-width:0.03527778"
       d="m 115.03135,120.40789 1.20015,5.09517 c 5.91908,0 11.97998,-0.60219 17.89892,-0.60219 l 1.05847,-4.49298 c -6.71918,0 -13.43836,0 -20.15754,0" />
  </g>
</svg>
