<?xml version="1.0" encoding="UTF-8" standalone="no"?>
<!-- Created with Inkscape (http://www.inkscape.org/) -->

<svg
   xmlns:dc="http://purl.org/dc/elements/1.1/"
   xmlns:cc="http://creativecommons.org/ns#"
   xmlns:rdf="http://www.w3.org/1999/02/22-rdf-syntax-ns#"
   xmlns:svg="http://www.w3.org/2000/svg"
   xmlns="http://www.w3.org/2000/svg"
   xmlns:sodipodi="http://sodipodi.sourceforge.net/DTD/sodipodi-0.dtd"
   xmlns:inkscape="http://www.inkscape.org/namespaces/inkscape"
   width="66.145836mm"
   height="38.615093mm"
   viewBox="0 0 66.145837 38.615093"
   version="1.1"
   id="svg4508"
   sodipodi:docname="logo.svg"
   inkscape:version="0.92.1 r">
  <defs
     id="defs4502" />
  <sodipodi:namedview
     id="base"
     pagecolor="#ffffff"
     bordercolor="#666666"
     borderopacity="1.0"
     inkscape:pageopacity="0.0"
     inkscape:pageshadow="2"
     inkscape:zoom="2.8"
     inkscape:cx="91.701006"
     inkscape:cy="30.229688"
     inkscape:document-units="mm"
     inkscape:current-layer="layer1"
     showgrid="false"
     inkscape:window-width="1920"
     inkscape:window-height="1053"
     inkscape:window-x="1920"
     inkscape:window-y="27"
     inkscape:window-maximized="1"
     fit-margin-top="0"
     fit-margin-left="0"
     fit-margin-right="0"
     fit-margin-bottom="0" />
  <metadata
     id="metadata4505">
    <rdf:RDF>
      <cc:Work
         rdf:about="">
        <dc:format>image/svg+xml</dc:format>
        <dc:type
           rdf:resource="http://purl.org/dc/dcmitype/StillImage" />
        <dc:title></dc:title>
      </cc:Work>
    </rdf:RDF>
  </metadata>
  <g
     inkscape:label="Calque 1"
     inkscape:groupmode="layer"
     id="layer1"
     transform="translate(-15.960247,-110.88812)">
    <rect
       style="fill:#000000;fill-opacity:0;stroke:#f7c50b;stroke-width:0.26458333;stroke-miterlimit:4;stroke-dasharray:none;stroke-opacity:1"
       id="rect16"
       width="3.823791"
       height="11.85039"
       x="99.150749"
       y="-69.679695"
       transform="matrix(0.70710678,0.70710678,0.70710678,-0.70710678,0,0)" />
    <rect
       style="fill:#000000;fill-opacity:0;stroke:#f7c50b;stroke-width:0.26458333;stroke-miterlimit:4;stroke-dasharray:none;stroke-opacity:1"
       id="rect16-3"
       width="3.823791"
       height="11.85039"
       x="103.65575"
       y="-67.408966"
       transform="matrix(0.70710678,0.70710678,0.70710678,-0.70710678,0,0)" />
    <rect
       style="fill:#000000;fill-opacity:0;stroke:#f7c50b;stroke-width:0.26458333;stroke-miterlimit:4;stroke-dasharray:none;stroke-opacity:1"
       id="rect16-6"
       width="3.823791"
       height="11.85039"
       x="-78.68972"
       y="-113.27187"
       transform="matrix(0.70710678,-0.70710678,-0.70710678,-0.70710678,0,0)" />
    <rect
       style="fill:#000000;fill-opacity:0;stroke:#f7c50b;stroke-width:0.26458333;stroke-miterlimit:4;stroke-dasharray:none;stroke-opacity:1"
       id="rect16-3-7"
       width="3.823791"
       height="11.85039"
       x="-74.1847"
       y="-111.00114"
       transform="matrix(0.70710678,-0.70710678,-0.70710678,-0.70710678,0,0)" />
    <rect
       style="fill:#000000;fill-opacity:0;stroke:#f7c50b;stroke-width:0.26458333;stroke-miterlimit:4;stroke-dasharray:none;stroke-opacity:1"
       id="rect16-5"
       width="3.823791"
       height="11.85039"
       x="113.95309"
       y="-86.716316"
       transform="matrix(0.70710678,0.70710678,0.70710678,-0.70710678,0,0)" />
    <rect
       style="fill:#000000;fill-opacity:0;stroke:#f7c50b;stroke-width:0.26458333;stroke-miterlimit:4;stroke-dasharray:none;stroke-opacity:1"
       id="rect16-3-3"
       width="3.823791"
       height="11.85039"
       x="118.4581"
       y="-88.987022"
       transform="matrix(0.70710678,0.70710678,0.70710678,-0.70710678,0,0)" />
    <g
       aria-label="MART HOME"
       style="font-style:normal;font-variant:normal;font-weight:normal;font-stretch:normal;font-size:10.58333302px;line-height:6.61458302px;font-family:myriad;-inkscape-font-specification:myriad;letter-spacing:0px;word-spacing:0px;fill:#ffffff;fill-opacity:1;stroke:none;stroke-width:0.26458332"
       id="text4589"
       transform="matrix(0.30342902,0,0,0.30342902,11.117445,104.1396)">
      <path
         id="path4757"
         style="font-style:normal;font-variant:normal;font-weight:bold;font-stretch:normal;font-size:25.39999962px;font-family:sans-serif;-inkscape-font-specification:'sans-serif Bold';fill:#ffffff;fill-opacity:1;stroke-width:0.26458332"
         d="m 220.79578,72.047823 h 12.88603 v 3.609082 h -8.11113 v 3.447851 h 7.62744 v 3.609082 h -7.62744 v 4.241602 h 8.38399 v 3.609082 h -13.15889 z m -25.30078,0 h 6.07715 l 4.21679,9.909472 4.2416,-9.909472 h 6.06475 v 18.516699 h -4.51445 V 77.021163 l -4.26641,9.983886 h -3.02617 l -4.26641,-9.983886 V 90.564522 H 195.495 Z m -42.8625,0 h 4.7749 v 7.056933 h 7.04454 v -7.056933 h 4.7749 v 18.516699 h -4.7749 v -7.850684 h -7.04454 v 7.850684 h -4.7749 z m -28.35175,0 h 17.06562 v 3.609082 h -6.13916 v 14.907617 h -4.7749 V 75.656905 h -6.15156 z m -9.41338,8.210351 c 1.00045,0 1.71565,-0.186035 2.1456,-0.558105 0.43822,-0.372071 0.65733,-0.98392 0.65733,-1.835547 0,-0.843359 -0.21911,-1.44694 -0.65733,-1.810742 -0.42995,-0.363802 -1.14515,-0.545703 -2.1456,-0.545703 h -2.00918 v 4.750097 z m -2.00918,3.299024 v 7.007324 h -4.77491 V 72.047823 h 7.29258 c 2.43913,0 4.22507,0.409277 5.35782,1.227832 1.14101,0.818555 1.71152,2.112532 1.71152,3.881933 0,1.223698 -0.29766,2.228288 -0.89297,3.01377 -0.58705,0.785482 -1.47588,1.364258 -2.6665,1.736328 0.65319,0.148828 1.2361,0.487825 1.74873,1.016992 0.52089,0.520899 1.04592,1.314649 1.57509,2.38125 l 2.59209,5.258594 h -5.08496 l -2.25722,-4.60127 c -0.45475,-0.926041 -0.91778,-1.558561 -1.38907,-1.897558 -0.46302,-0.338997 -1.08314,-0.508496 -1.86035,-0.508496 z m -13.183691,3.633886 h -7.466211 l -1.178223,3.373438 h -4.799707 l 6.858496,-18.516699 h 5.692676 l 6.8585,18.516699 h -4.79971 z m -6.275586,-3.435449 h 5.072558 L 95.941393,76.388643 Z M 63.137194,72.047823 h 6.077148 l 4.216797,9.909472 4.241602,-9.909472 h 6.064746 V 90.564522 H 79.223034 V 77.021163 l -4.266407,9.983886 h -3.026171 l -4.266407,-9.983886 v 13.543359 h -4.526855 z"
         inkscape:connector-curvature="0"
         sodipodi:nodetypes="cccccccccccccccccccccccccccccccccccccccccccccccccscscsccsccccscsccccccccscccccccccccccccccccccccccccc" />
    </g>
    <path
       inkscape:connector-curvature="0"
       d="m 69.366182,128.94046 q 0,0.58706 -0.229553,1.12144 -0.229556,0.53438 -0.61719,0.922 -0.387609,0.38761 -0.921981,0.61716 -0.534375,0.22956 -1.12144,0.22956 -0.587062,0 -1.121434,-0.22956 -0.534399,-0.22955 -0.922012,-0.61716 -0.387606,-0.38762 -0.617162,-0.922 -0.229556,-0.53438 -0.229556,-1.12144 0,-0.68491 0.30294,-1.29079 0.302937,-0.60588 0.852378,-1.01607 0.161803,-0.12042 0.359384,-0.0941 0.197578,0.0263 0.314222,0.18816 0.120428,0.15805 0.09221,0.35563 -0.02822,0.19757 -0.186281,0.31799 -0.368791,0.27848 -0.570125,0.68114 -0.20134,0.40267 -0.20134,0.85802 0,0.39138 0.152421,0.747 0.152403,0.35563 0.412057,0.61529 0.25968,0.25966 0.615287,0.41208 0.355628,0.15241 0.747015,0.15241 0.391372,0 0.746994,-0.15241 0.355631,-0.15242 0.615293,-0.41208 0.259672,-0.25966 0.412069,-0.61529 0.152421,-0.35562 0.152421,-0.747 0,-0.45535 -0.201334,-0.85802 -0.201331,-0.40266 -0.570128,-0.68114 -0.158059,-0.12042 -0.186293,-0.31799 -0.02822,-0.19758 0.0922,-0.35563 0.116671,-0.16182 0.316124,-0.18816 0.199453,-0.0263 0.357506,0.0941 0.54944,0.41019 0.852378,1.01607 0.302937,0.60588 0.302937,1.29079 z m -2.408483,-2.89016 v 2.40847 q 0,0.19569 -0.142991,0.33869 -0.143003,0.143 -0.33869,0.143 -0.195684,0 -0.338691,-0.143 -0.143012,-0.143 -0.143012,-0.33869 v -2.40847 q 0,-0.19569 0.143012,-0.33869 0.143007,-0.143 0.338691,-0.143 0.195687,0 0.33869,0.143 0.142991,0.143 0.142991,0.33869 z"
       id="path4671"
       style="fill:none;stroke:#f7c50b;stroke-width:0.26458333;stroke-miterlimit:4;stroke-dasharray:none;stroke-opacity:1" />
  </g>
</svg>
