<?xml version="1.0" encoding="UTF-8" standalone="no"?>
<svg
   xmlns:dc="http://purl.org/dc/elements/1.1/"
   xmlns:cc="http://creativecommons.org/ns#"
   xmlns:rdf="http://www.w3.org/1999/02/22-rdf-syntax-ns#"
   xmlns:svg="http://www.w3.org/2000/svg"
   xmlns="http://www.w3.org/2000/svg"
   id="svg4922"
   version="1.1"
   viewBox="0 0 170.81747 20.902086"
   height="20.902086mm"
   width="170.81747mm">
  <defs
     id="defs4916" />
  <metadata
     id="metadata4919">
    <rdf:RDF>
      <cc:Work
         rdf:about="">
        <dc:format>image/svg+xml</dc:format>
        <dc:type
           rdf:resource="http://purl.org/dc/dcmitype/StillImage" />
        <dc:title></dc:title>
      </cc:Work>
    </rdf:RDF>
  </metadata>
  <g
     transform="translate(-47.638879,-53.715623)"
     id="layer1">
    <path
       d="m 205.29747,55.272953 h 12.88603 v 3.609082 h -8.11113 v 3.447851 h 7.62744 v 3.609082 h -7.62744 v 4.241602 h 8.38399 v 3.609082 h -13.15889 z m -25.30078,0 h 6.07715 l 4.21679,9.909472 4.2416,-9.909472 h 6.06475 v 18.516699 h -4.51445 v -13.54336 l -4.26641,9.983887 h -3.02617 l -4.26641,-9.983887 v 13.54336 h -4.52685 z m -42.8625,0 h 4.7749 v 7.056933 h 7.04454 v -7.056933 h 4.7749 v 18.516699 h -4.7749 v -7.850684 h -7.04454 v 7.850684 h -4.7749 z m -28.35175,0 h 17.06562 v 3.609082 H 119.7089 V 73.789652 H 114.934 V 58.882035 h -6.15156 z m -9.413384,8.210351 c 1.000454,0 1.715644,-0.186036 2.145604,-0.558105 0.43822,-0.372071 0.65733,-0.98392 0.65733,-1.835547 0,-0.84336 -0.21911,-1.446941 -0.65733,-1.810742 -0.42996,-0.363802 -1.14515,-0.545703 -2.145604,-0.545703 h -2.00918 v 4.750097 z m -2.00918,3.299024 v 7.007324 H 92.584965 V 55.272953 h 7.292581 c 2.439134,0 4.225074,0.409277 5.357824,1.227832 1.14101,0.818555 1.71152,2.112532 1.71152,3.881932 0,1.223699 -0.29766,2.228288 -0.89297,3.013771 -0.58705,0.785482 -1.47588,1.364258 -2.6665,1.736328 0.65319,0.148828 1.23609,0.487825 1.74873,1.016992 0.52089,0.520899 1.04592,1.314649 1.57509,2.38125 l 2.59209,5.258594 h -5.08496 l -2.25722,-4.60127 c -0.45475,-0.926041 -0.91778,-1.558561 -1.38907,-1.897558 -0.46302,-0.338997 -1.083144,-0.508496 -1.860355,-0.508496 z m -13.183692,3.633886 h -7.466211 l -1.178222,3.373438 H 70.732043 L 77.59054,55.272953 h 5.692675 l 6.8585,18.516699 h -4.799708 z m -6.275586,-3.435449 h 5.07256 L 80.44308,59.613773 Z M 47.638879,55.272953 h 6.077148 l 4.216797,9.909472 4.241602,-9.909472 h 6.064746 v 18.516699 h -4.514453 v -13.54336 l -4.266407,9.983887 h -3.026171 l -4.266407,-9.983887 v 13.54336 h -4.526855 z"
       style="font-style:normal;font-variant:normal;font-weight:bold;font-stretch:normal;font-size:25.39999962px;line-height:6.61458302px;font-family:sans-serif;-inkscape-font-specification:'sans-serif Bold';letter-spacing:0px;word-spacing:0px;fill:#ffffff;fill-opacity:1;stroke:none;stroke-width:0.26458332"
       id="path4757" />
    <path
       style="fill:none;stroke:#f7c50b;stroke-width:0.26458332;stroke-miterlimit:4;stroke-dasharray:none;stroke-opacity:1"
       id="path4671"
       d="m 176.46994,64.960418 q 0,1.93476 -0.75653,3.69589 -0.75654,1.76114 -2.03405,3.03859 -1.27743,1.27743 -3.03854,2.03397 -1.76112,0.75655 -3.69589,0.75655 -1.93476,0 -3.69587,-0.75655 -1.7612,-0.75654 -3.03864,-2.03397 -1.27742,-1.27745 -2.03396,-3.03859 -0.75654,-1.76113 -0.75654,-3.69589 0,-2.25723 0.99839,-4.25401 0.99838,-1.996771 2.80915,-3.348631 0.53325,-0.396869 1.18441,-0.310059 0.65115,0.0868 1.03557,0.62012 0.39689,0.52089 0.30388,1.17202 -0.093,0.651129 -0.61392,1.047999 -1.21541,0.917771 -1.87894,2.244821 -0.66355,1.32706 -0.66355,2.82774 0,1.28985 0.50233,2.46186 0.50227,1.17202 1.358,2.02778 0.85582,0.85576 2.02778,1.35807 1.17203,0.50229 2.46191,0.50229 1.28983,0 2.46184,-0.50229 1.17204,-0.50231 2.0278,-1.35807 0.85579,-0.85576 1.35804,-2.02778 0.50233,-1.17201 0.50233,-2.46186 0,-1.50068 -0.66353,-2.82774 -0.66352,-1.32705 -1.87895,-2.244821 -0.52091,-0.39687 -0.61396,-1.047999 -0.093,-0.65113 0.30385,-1.17202 0.38451,-0.5333 1.04184,-0.62012 0.65733,-0.0868 1.17822,0.310059 1.81077,1.35186 2.80915,3.348631 0.99838,1.99678 0.99838,4.25401 z m -7.93755,-9.525 v 7.9375 q 0,0.64492 -0.47125,1.11622 -0.47129,0.47128 -1.11621,0.47128 -0.64491,0 -1.11621,-0.47128 -0.47132,-0.4713 -0.47132,-1.11622 v -7.9375 q 0,-0.644926 0.47132,-1.11621 0.4713,-0.471293 1.11621,-0.471293 0.64492,0 1.11621,0.471293 0.47125,0.471284 0.47125,1.11621 z" />
  </g>
</svg>
